<svg xmlns="http://www.w3.org/2000/svg" width="395" height="524" viewBox="0 0 395 524">
  <g id="그룹_109" data-name="그룹 109" transform="translate(-91 -115)">
    <g id="그룹_99" data-name="그룹 99">
      <g id="그룹_19" data-name="그룹 19" transform="translate(1029.501 -22)">
        <g id="그룹_18" data-name="그룹 18" transform="translate(418.498 300)">
          <g id="그룹_5" data-name="그룹 5" transform="translate(-624 45)">
            <g id="패스_4" data-name="패스 4" transform="translate(-733 -173)" fill="#0370f1">
              <path d="M 347 481.5 L 48 481.5 C 25.66819953918457 481.5 7.5 463.331787109375 7.5 441 L 7.5 48 C 7.5 25.66819953918457 25.66819953918457 7.5 48 7.5 L 347 7.5 C 369.331787109375 7.5 387.5 25.66819953918457 387.5 48 L 387.5 441 C 387.5 463.331787109375 369.331787109375 481.5 347 481.5 Z" stroke="none"/>
              <path d="M 48 15 C 29.80377197265625 15 15 29.80377197265625 15 48 L 15 441 C 15 459.1962280273438 29.80377197265625 474 48 474 L 347 474 C 365.1962280273438 474 380 459.1962280273438 380 441 L 380 48 C 380 29.80377197265625 365.1962280273438 15 347 15 L 48 15 M 48 0 L 347 0 C 373.5097045898438 0 395 21.49029541015625 395 48 L 395 441 C 395 467.5097045898438 373.5097045898438 489 347 489 L 48 489 C 21.49029541015625 489 0 467.5097045898438 0 441 L 0 48 C 0 21.49029541015625 21.49029541015625 0 48 0 Z" stroke="none" fill="#fff"/>
            </g>
          </g>
        </g>
      </g>
      <g id="그룹_44" data-name="그룹 44" transform="translate(166 115)">
        <g id="사각형_3" data-name="사각형 3" transform="translate(113)" fill="#fff" stroke="#9d9d9d" stroke-width="1">
          <rect width="19" height="71" rx="6" stroke="none"/>
          <rect x="0.5" y="0.5" width="18" height="70" rx="5.5" fill="none"/>
        </g>
        <g id="사각형_4" data-name="사각형 4" transform="translate(0)" fill="#fff" stroke="#9d9d9d" stroke-width="1">
          <rect width="19" height="71" rx="6" stroke="none"/>
          <rect x="0.5" y="0.5" width="18" height="70" rx="5.5" fill="none"/>
        </g>
        <g id="사각형_5" data-name="사각형 5" transform="translate(226)" fill="#fff" stroke="#9d9d9d" stroke-width="1">
          <rect width="19" height="71" rx="6" stroke="none"/>
          <rect x="0.5" y="0.5" width="18" height="70" rx="5.5" fill="none"/>
        </g>
      </g>
    </g>
    <path id="패스_8" data-name="패스 8" d="M0,0H363.485" transform="translate(105.446 254.643)" fill="none" stroke="#fff" stroke-width="15"/>
  </g>
</svg>
